Coordinates
version=1
nRows=6
nColumns=63
inDegrees=yes

Units are S.I. units (second, meters, Newtons, ...)
If the header above contains a line with 'inDegrees', this indicates whether rotational values are in degrees (yes) or radians (no).

endheader
time	pelvis_tilt	pelvis_list	pelvis_rotation	pelvis_tx	pelvis_ty	pelvis_tz	hip_flexion_r	hip_adduction_r	hip_rotation_r	knee_angle_r	knee_angle_r_beta	ankle_angle_r	subtalar_angle_r	mtp_angle_r	hip_flexion_l	hip_adduction_l	hip_rotation_l	knee_angle_l	knee_angle_l_beta	ankle_angle_l	subtalar_angle_l	mtp_angle_l	L5_S1_Flex_Ext	L5_S1_Lat_Bending	L5_S1_axial_rotation	L4_L5_Flex_Ext	L4_L5_Lat_Bending	L4_L5_axial_rotation	L3_L4_Flex_Ext	L3_L4_Lat_Bending	L3_L4_axial_rotation	L2_L3_Flex_Ext	L2_L3_Lat_Bending	L2_L3_axial_rotation	L1_L2_Flex_Ext	L1_L2_Lat_Bending	L1_L2_axial_rotation	L1_T12_Flex_Ext	L1_T12_Lat_Bending	L1_T12_axial_rotation	Abs_r3	Abs_r2	Abs_r1	Abs_t1	Abs_t2	neck_flexion	neck_bending	neck_rotation	arm_flex_r	arm_add_r	arm_rot_r	elbow_flex_r	pro_sup_r	wrist_flex_r	wrist_dev_r	arm_flex_l	arm_add_l	arm_rot_l	elbow_flex_l	pro_sup_l	wrist_flex_l	wrist_dev_l
0.000000	-7.371087	-7.983048	83.003238	0.232171	0.345685	0.942133	7.912699	-3.673727	-6.910863	8.297001	0.144810	22.925116	-5.140594	0.000000	9.979271	3.350276	1.882126	12.482111	0.217854	19.991930	0.626783	0.000000	0.044253	-0.448010	0.079067	0.082183	-0.595854	0.084008	0.072704	-1.089293	0.084008	0.050577	-1.089293	0.069183	0.041094	-0.913583	0.064242	0.025286	-0.693968	0.059300	0.316097	-5.067984	0.439745	0.000000	0.000000	25.866528	5.009916	-7.338218	15.402865	-2.881232	69.732798	24.253986	49.989428	-2.333931	-2.194721	23.786210	-2.413215	92.694637	29.691486	38.564618	-12.791906	-3.712789
0.020000	-7.250564	-7.894026	82.439396	0.232531	0.345660	0.941056	7.879931	-3.502732	-7.149270	8.277346	0.144467	23.239460	-4.176418	0.000000	9.658284	3.121975	1.168763	12.232542	0.213498	20.391851	1.355921	0.000000	0.047473	-0.418492	0.077906	0.088162	-0.556594	0.082776	0.077993	-1.017521	0.082776	0.054257	-1.017521	0.068168	0.044083	-0.853388	0.063299	0.027126	-0.648244	0.058430	0.339094	-4.734061	0.433292	0.000000	0.000000	25.783517	5.076950	-6.479299	15.474233	-2.967067	70.339273	24.466113	50.340336	-3.390136	-2.159603	23.320475	-2.351359	91.196013	29.903187	41.771973	-13.404074	-2.687939
0.040000	-7.113049	-7.858680	82.060593	0.232707	0.345595	0.940307	7.891839	-3.333863	-7.422375	8.265213	0.144255	23.502452	-3.386332	0.000000	9.464006	2.889834	0.587858	12.065797	0.210588	20.767053	2.060212	0.000000	0.051505	-0.390142	0.061006	0.095650	-0.518889	0.064819	0.084618	-0.948592	0.064819	0.058865	-0.948592	0.053381	0.047828	-0.795578	0.049568	0.029430	-0.604331	0.045755	0.367897	-4.413369	0.339299	0.000000	0.000000	25.744396	5.140668	-5.797658	15.563018	-3.028047	70.983244	24.582647	50.560856	-4.198948	-2.128073	22.897055	-2.295745	89.921875	30.069801	43.982343	-13.878230	-1.971651
0.060000	-6.963001	-7.870121	81.845047	0.232724	0.345495	0.939847	7.941973	-3.169324	-7.722050	8.259614	0.144157	23.717561	-2.755302	0.000000	9.381109	2.657567	0.128224	11.972377	0.208957	21.116402	2.732577	0.000000	0.056227	-0.363202	0.030643	0.104418	-0.483059	0.032558	0.092375	-0.883090	0.032558	0.064261	-0.883090	0.026812	0.052212	-0.740642	0.024897	0.032128	-0.562600	0.022982	0.401621	-4.108616	0.170425	0.000000	0.000000	25.743671	5.201593	-5.276710	15.666240	-3.067133	71.650117	24.617377	50.674471	-4.788807	-2.101788	22.515727	-2.246903	88.860351	30.194992	45.302453	-14.224946	-1.532635
0.080000	-6.804884	-7.921462	81.770980	0.232603	0.345366	0.939641	8.023882	-3.011316	-8.040168	8.259561	0.144157	23.888260	-2.268291	0.000000	9.394266	2.428887	-0.221322	11.942783	0.208441	21.438761	3.365935	0.000000	0.061513	-0.337910	-0.010909	0.114235	-0.449420	-0.011591	0.101059	-0.821595	-0.011591	0.070303	-0.821595	-0.009545	0.057121	-0.689066	-0.008863	0.035148	-0.523423	-0.008182	0.439380	-3.822506	-0.060671	0.000000	0.000000	25.775849	5.260245	-4.899870	15.780915	-3.087285	72.325299	24.584095	50.704665	-5.188150	-2.082404	22.176268	-2.205367	87.999569	30.282426	45.839028	-14.454795	-1.339599
0.100000	-6.643159	-8.005814	81.816612	0.232370	0.345213	0.939651	8.131116	-2.862042	-8.368601	8.264066	0.144235	24.018019	-1.910264	0.000000	9.488149	2.207509	-0.471968	11.967517	0.208873	21.732994	3.953206	0.000000	0.067240	-0.314505	-0.061372	0.124871	-0.418292	-0.065207	0.110468	-0.764689	-0.065207	0.076848	-0.764689	-0.053700	0.062439	-0.641339	-0.049864	0.038421	-0.487169	-0.046029	0.480287	-3.557748	-0.341330	0.000000	0.000000	25.835435	5.317144	-4.650553	15.904061	-3.091464	72.994198	24.496592	50.674921	-5.425415	-2.071578	21.878454	-2.171667	87.327658	30.335770	45.698790	-14.578346	-1.361252
